<svg xmlns="http://www.w3.org/2000/svg" width="24" height="24" fill-rule="evenodd" clip-rule="evenodd"><path d="M22 0H2v24h14l6-6V0zm-7 23H3V1h18v16h-6v6zm1-5h4.586L16 22.586V18zm-3 1H5v1h8v-1zm0-3H5v1h8v-1zm6-2v-1H5v1h14zm0-4h-4v1h4v-1zm-6.006 1H5.003L5 10.211c-.003-.72-.006-1.615 1.314-1.92 1.483-.341 1.236-.418 1.158-.563-1.078-1.988-.71-3.173-.395-3.703C7.465 3.374 8.166 3 9 3c.827 0 1.523.368 1.91 1.011.545.904.409 2.222-.379 3.713-.105.196-.195.255 1.119.559 1.355.312 1.352 1.212 1.35 1.936l-.006.781zM6 10h6c-.007-.547-.07-.626-.54-.734-.855-.198-1.629-.376-1.901-.972-.142-.311-.113-.66.087-1.039.61-1.151.758-2.146.407-2.729C9.777 4.068 9.275 4 9 4c-.48 0-.857.19-1.063.537-.352.59-.201 1.58.414 2.714.204.377.236.727.095 1.039-.269.598-1.036.774-1.847.962-.525.121-.593.202-.599.748zm13-2V7h-4v1h4zm0-4h-4v1h4V4z"/></svg>